# xmcd CD database file generated by GCD 2.95
# 
# Track frame offsets:
#       150
#       14102
#       27438
#       42775
#       60535
#       75579
#       80768
#       96351
#       106860
#       112444
#       136708
#       142197
#       152580
#       164649
#       169232
#       172318
#       189479
#       202035
#       215692
#       228718
#       234609
#       247998
#       262462
#       266496
#       281569
#       293561
#       308002
# 
# Disc length: 4295 seconds
# 
# Revision: 3
# Processed by: cddbd v1.5PL3 Copyright (c) Steve Scherf et al.
# Submitted via: GCD 2.95
# 
DISCID=a010c51b
DTITLE=Hank Williams III - Austin 2004-01-18 Disc 1
DYEAR=1900
DGENRE=
TTITLE0=Straight To Hell
TTITLE1=Thrown Out Of The Bar
TTITLE2=A Little Bit of Smoke (And A Whole Lotta Wine)
TTITLE3=I Don't Know
TTITLE4=7 Months, 39 Days
TTITLE5=*the badass Scott H Biram*
TTITLE6=Trashville
TTITLE7=Even Though I'm Broke
TTITLE8=*song request*
TTITLE9=Whiskey, Weed, and Women
TTITLE10=Long-haired Redneck
TTITLE11=If You Don't Like Hank Williams
TTITLE12=I'd Still Want You
TTITLE13=Fiddle Hoedown (featuring Donnie Herron)
TTITLE14=*band introduction*
TTITLE15=Cocaine Blues
TTITLE16=The Devil Is My Friend
TTITLE17=Country Heroes
TTITLE18=Nighttime Ramblin' Man
TTITLE19=*we appareciate everyone coming out*
TTITLE20=Double-A Daddy
TTITLE21=Dick In Dixie
TTITLE22=*this is our middle ground*
TTITLE23=Life Of Sin
TTITLE24=Go Fuck You
TTITLE25=Hellbilly
TTITLE26=They Call Me White Trash
EXTD=
EXTT0=
EXTT1=
EXTT2=
EXTT3=
EXTT4=
EXTT5=
EXTT6=
EXTT7=
EXTT8=
EXTT9=
EXTT10=
EXTT11=
EXTT12=
EXTT13=
EXTT14=
EXTT15=
EXTT16=
EXTT17=
EXTT18=
EXTT19=
EXTT20=
EXTT21=
EXTT22=
EXTT23=
EXTT24=
EXTT25=
EXTT26=
PLAYORDER=
